# Blender 4.5.2 LTS
# www.blender.org
mtllib Tornado.mtl
o Tornado
v 0.080829 -0.013003 -3.000000
v 0.053654 10.914824 -2.000000
v 0.666578 -0.013242 -2.942356
v 0.442571 10.915273 -1.961571
v 1.229808 -0.013467 -2.771638
v 0.816548 10.915701 -1.847759
v 1.748875 -0.013671 -2.494409
v 1.161212 10.916093 -1.662939
v 2.203836 -0.013846 -2.121320
v 1.463317 10.916435 -1.414214
v 2.577208 -0.013988 -1.666711
v 1.711251 10.916714 -1.111140
v 2.854646 -0.014092 -1.148050
v 1.895485 10.916920 -0.765367
v 3.025491 -0.014156 -0.585271
v 2.008936 10.917048 -0.390181
v 3.083178 -0.014177 0.000000
v 2.047244 10.917089 0.000000
v 3.025491 -0.014156 0.585271
v 2.008936 10.917048 0.390181
v 2.854646 -0.014092 1.148050
v 1.895485 10.916920 0.765367
v 2.577208 -0.013988 1.666711
v 1.711251 10.916714 1.111140
v 2.203836 -0.013846 2.121320
v 1.463317 10.916435 1.414214
v 1.748875 -0.013671 2.494409
v 1.161212 10.916093 1.662939
v 1.229808 -0.013467 2.771638
v 0.816548 10.915701 1.847759
v 0.666578 -0.013242 2.942356
v 0.442571 10.915273 1.961571
v 0.080829 -0.013003 3.000000
v 0.053654 10.914824 2.000000
v -0.504928 -0.012760 2.942356
v -0.335256 10.914370 1.961571
v -1.068184 -0.012521 2.771638
v -0.709214 10.913932 1.847759
v -1.587291 -0.012298 2.494409
v -1.053851 10.913525 1.662939
v -2.042297 -0.012100 2.121320
v -1.355924 10.913165 1.414214
v -2.415716 -0.011935 1.666711
v -1.603825 10.912869 1.111140
v -2.693192 -0.011811 1.148050
v -1.788031 10.912649 0.765367
v -2.864063 -0.011735 0.585271
v -1.901464 10.912513 0.390181
v -2.921759 -0.011709 0.000000
v -1.939765 10.912466 0.000000
v -2.864063 -0.011735 -0.585271
v -1.901464 10.912513 -0.390181
v -2.693192 -0.011811 -1.148050
v -1.788031 10.912649 -0.765367
v -2.415716 -0.011935 -1.666711
v -1.603825 10.912869 -1.111140
v -2.042297 -0.012100 -2.121320
v -1.355924 10.913165 -1.414214
v -1.587291 -0.012298 -2.494409
v -1.053851 10.913525 -1.662939
v -1.068184 -0.012521 -2.771638
v -0.709214 10.913932 -1.847759
v -0.504928 -0.012760 -2.942356
v -0.335256 10.914370 -1.961571
v -0.060309 5.528460 -0.810301
v 0.097748 5.528431 -0.794731
v 0.249724 5.528408 -0.748621
v 0.389777 5.528391 -0.673741
v 0.512533 5.528377 -0.572969
v 0.613294 5.528357 -0.450179
v 0.688166 5.528342 -0.310089
v 0.734272 5.528332 -0.158082
v 0.749840 5.528329 0.000000
v 0.734272 5.528332 0.158082
v 0.688166 5.528342 0.310089
v 0.613294 5.528357 0.450179
v 0.512533 5.528377 0.572969
v 0.389777 5.528391 0.673741
v 0.249724 5.528408 0.748621
v 0.097748 5.528431 0.794731
v -0.060309 5.528460 0.810301
v -0.218374 5.528492 0.794731
v -0.370372 5.528527 0.748621
v -0.510462 5.528563 0.673741
v -0.633260 5.528599 0.572969
v -0.734037 5.528629 0.450179
v -0.808908 5.528644 0.310089
v -0.855013 5.528653 0.158082
v -0.870581 5.528656 0.000000
v -0.855013 5.528653 -0.158082
v -0.808908 5.528644 -0.310089
v -0.734037 5.528629 -0.450179
v -0.633260 5.528599 -0.572969
v -0.510462 5.528563 -0.673741
v -0.370372 5.528527 -0.748621
v -0.218374 5.528492 -0.794731
v 0.096155 8.084221 -1.000000
v 0.291285 8.084128 -0.980785
v 0.478917 8.084040 -0.923880
v 0.651841 8.083956 -0.831470
v 0.803410 8.083883 -0.707107
v 0.927801 8.083823 -0.555570
v 1.020232 8.083778 -0.382683
v 1.077151 8.083752 -0.195090
v 1.096370 8.083742 -0.000000
v 1.077151 8.083752 0.195090
v 1.020232 8.083778 0.382683
v 0.927801 8.083823 0.555570
v 0.803410 8.083883 0.707107
v 0.651841 8.083956 0.831470
v 0.478917 8.084040 0.923880
v 0.291285 8.084128 0.980785
v 0.096155 8.084221 1.000000
v -0.098973 8.084312 0.980785
v -0.286602 8.084401 0.923880
v -0.459520 8.084483 0.831470
v -0.611084 8.084554 0.707107
v -0.735468 8.084611 0.555570
v -0.827894 8.084654 0.382683
v -0.884809 8.084681 0.195090
v -0.904027 8.084689 -0.000000
v -0.884809 8.084681 -0.195090
v -0.827894 8.084654 -0.382683
v -0.735468 8.084611 -0.555570
v -0.611084 8.084554 -0.707107
v -0.459520 8.084483 -0.831470
v -0.286602 8.084401 -0.923880
v -0.098973 8.084312 -0.980785
v -0.066964 2.890384 -1.089704
v 0.141236 2.890429 -1.026479
v 0.333115 2.890471 -0.923806
v 0.501298 2.890507 -0.785633
v 0.639323 2.890537 -0.617268
v 0.741884 2.890559 -0.425181
v 0.805042 2.890573 -0.216756
v 0.826367 2.890578 0.000000
v 0.805042 2.890573 0.216756
v 0.741884 2.890559 0.425181
v 0.639323 2.890537 0.617268
v 0.501298 2.890507 0.785633
v 0.333115 2.890471 0.923806
v 0.141236 2.890429 1.026479
v -0.066964 2.890384 1.089704
v -0.283484 2.890337 1.111053
v -0.500003 2.890290 1.089704
v -0.708202 2.890244 1.026479
v -0.900078 2.890203 0.923806
v -1.068258 2.890166 0.785633
v -1.206280 2.890135 0.617268
v -1.308839 2.890113 0.425181
v -1.371995 2.890099 0.216756
v -1.393320 2.890094 0.000000
v -1.371995 2.890099 -0.216756
v -1.308839 2.890113 -0.425181
v -1.206280 2.890135 -0.617268
v -1.068258 2.890166 -0.785633
v -0.900078 2.890203 -0.923806
v -0.708202 2.890244 -1.026479
v -0.500003 2.890290 -1.089704
v -0.283484 2.890337 -1.111053
v 0.385826 0.984933 -1.972387
v 0.764179 0.984384 -1.857948
v 1.112868 0.983880 -1.672109
v 1.418496 0.983438 -1.422012
v 1.669317 0.983076 -1.117267
v 1.855693 0.982808 -0.769587
v 1.970462 0.982643 -0.392332
v 2.009215 0.982587 0.000000
v 1.970462 0.982643 0.392332
v 1.855693 0.982808 0.769587
v 1.669317 0.983076 1.117267
v 1.418496 0.983438 1.422012
v 1.112868 0.983880 1.672109
v 0.764179 0.984384 1.857948
v 0.385826 0.984933 1.972387
v -0.007650 0.985505 2.011029
v -0.401128 0.986078 1.972387
v -0.779487 0.986630 1.857948
v -1.128187 0.987140 1.672109
v -1.433826 0.987587 1.422012
v -1.684659 0.987955 1.117267
v -1.871045 0.988229 0.769587
v -1.985821 0.988397 0.392332
v -2.024577 0.988454 0.000000
v -1.985821 0.988397 -0.392332
v -1.871045 0.988229 -0.769587
v -1.684659 0.987955 -1.117267
v -1.433826 0.987587 -1.422012
v -1.128187 0.987140 -1.672109
v -0.779487 0.986630 -1.857948
v -0.401128 0.986078 -1.972387
v -0.007650 0.985505 -2.011029
v -0.138838 1.861282 -1.304470
v 0.115924 1.861135 -1.279405
v 0.360896 1.860994 -1.205173
v 0.586665 1.860863 -1.084627
v 0.784553 1.860748 -0.922399
v 0.946956 1.860654 -0.724725
v 1.067633 1.860583 -0.499199
v 1.141945 1.860540 -0.254489
v 1.167038 1.860525 0.000000
v 1.141945 1.860540 0.254489
v 1.067633 1.860583 0.499199
v 0.946956 1.860654 0.724725
v 0.784553 1.860748 0.922399
v 0.586665 1.860863 1.084627
v 0.360896 1.860994 1.205173
v 0.115924 1.861135 1.279405
v -0.138838 1.861282 1.304470
v -0.393599 1.861428 1.279405
v -0.638569 1.861568 1.205173
v -0.864333 1.861697 1.084627
v -1.062217 1.861810 0.922399
v -1.224616 1.861902 0.724725
v -1.345289 1.861970 0.499199
v -1.419598 1.862013 0.254489
v -1.444690 1.862027 0.000000
v -1.419598 1.862013 -0.254489
v -1.345289 1.861970 -0.499199
v -1.224616 1.861902 -0.724725
v -1.062217 1.861810 -0.922399
v -0.864333 1.861697 -1.084627
v -0.638569 1.861568 -1.205173
v -0.393599 1.861428 -1.279405
v 0.043464 9.803988 -1.392339
v 0.314606 9.804015 -1.365586
v 0.575331 9.804042 -1.286353
v 0.815618 9.804064 -1.157688
v 1.026233 9.804085 -0.984532
v 1.199081 9.804101 -0.773542
v 1.327519 9.804113 -0.532825
v 1.406612 9.804120 -0.271632
v 1.433318 9.804123 -0.000000
v 1.406612 9.804120 0.271632
v 1.327519 9.804113 0.532825
v 1.199081 9.804101 0.773542
v 1.026233 9.804085 0.984532
v 0.815618 9.804064 1.157688
v 0.575331 9.804042 1.286353
v 0.314606 9.804015 1.365586
v 0.043464 9.803988 1.392339
v -0.227676 9.803961 1.365586
v -0.488394 9.803933 1.286353
v -0.728671 9.803907 1.157688
v -0.939274 9.803885 0.984532
v -1.112111 9.803865 0.773542
v -1.240539 9.803851 0.532825
v -1.319625 9.803843 0.271632
v -1.346329 9.803841 -0.000000
v -1.319625 9.803843 -0.271632
v -1.240539 9.803851 -0.532825
v -1.112111 9.803865 -0.773542
v -0.939274 9.803885 -0.984532
v -0.728671 9.803907 -1.157688
v -0.488394 9.803933 -1.286353
v -0.227676 9.803961 -1.365586
v 0.268040 8.883417 -1.096117
v 0.477435 8.883417 -1.032520
v 0.670417 8.883417 -0.929243
v 0.839568 8.883417 -0.790256
v 0.978389 8.883417 -0.620901
v 1.081542 8.883417 -0.427684
v 1.145063 8.883417 -0.218031
v 1.166512 8.883417 -0.000000
v 1.145063 8.883417 0.218031
v 1.081542 8.883417 0.427684
v 0.978389 8.883417 0.620901
v 0.839568 8.883417 0.790257
v 0.670417 8.883417 0.929243
v 0.477435 8.883417 1.032520
v 0.268040 8.883417 1.096117
v 0.050278 8.883417 1.117592
v -0.167482 8.883417 1.096117
v -0.376871 8.883417 1.032520
v -0.569843 8.883417 0.929243
v -0.738983 8.883417 0.790257
v -0.877792 8.883417 0.620901
v -0.980936 8.883417 0.427684
v -1.044451 8.883417 0.218031
v -1.065897 8.883417 -0.000000
v -1.044451 8.883417 -0.218031
v -0.980936 8.883417 -0.427684
v -0.877792 8.883417 -0.620901
v -0.738983 8.883417 -0.790256
v -0.569843 8.883417 -0.929243
v -0.376871 8.883417 -1.032520
v -0.167482 8.883417 -1.096117
v 0.050278 8.883417 -1.117592
v 0.319395 6.884357 -0.894450
v 0.490643 6.884211 -0.842554
v 0.648435 6.884134 -0.758278
v 0.786707 6.884128 -0.644863
v 0.900015 6.884166 -0.506665
v 0.984247 6.884119 -0.348997
v 1.036216 6.884042 -0.177917
v 1.053764 6.884016 -0.000000
v 1.036216 6.884042 0.177917
v 0.984247 6.884119 0.348997
v 0.900015 6.884166 0.506665
v 0.786707 6.884128 0.644863
v 0.648435 6.884134 0.758278
v 0.490643 6.884211 0.842554
v 0.319395 6.884357 0.894450
v 0.141273 6.884566 0.911973
v -0.036877 6.884829 0.894450
v -0.208208 6.885135 0.842554
v -0.366136 6.885474 0.758278
v -0.504591 6.885832 0.644863
v -0.618255 6.886195 0.506665
v -0.702882 6.886519 0.348997
v -0.754990 6.886668 0.177917
v -0.772534 6.886693 -0.000000
v -0.754990 6.886668 -0.177917
v -0.702882 6.886519 -0.348997
v -0.618255 6.886195 -0.506665
v -0.504591 6.885832 -0.644863
v -0.366136 6.885474 -0.758278
v -0.208208 6.885135 -0.842554
v -0.036877 6.884829 -0.894450
v 0.141273 6.884566 -0.911973
v -0.311292 4.244957 -0.960677
v -0.123875 4.244884 -0.942218
v 0.056390 4.244783 -0.887550
v 0.222577 4.244658 -0.798774
v 0.368205 4.244559 -0.679301
v 0.487631 4.244520 -0.533723
v 0.576409 4.244485 -0.367635
v 0.631079 4.244464 -0.187419
v 0.649538 4.244456 0.000000
v 0.631079 4.244464 0.187419
v 0.576409 4.244485 0.367635
v 0.487631 4.244520 0.533723
v 0.368205 4.244559 0.679301
v 0.222577 4.244658 0.798774
v 0.056390 4.244783 0.887550
v -0.123875 4.244884 0.942218
v -0.311292 4.244957 0.960677
v -0.498656 4.244998 0.942218
v -0.678770 4.245007 0.887550
v -0.844804 4.245028 0.798774
v -0.990425 4.245093 0.679301
v -1.109892 4.245139 0.533723
v -1.198663 4.245173 0.367635
v -1.253328 4.245193 0.187419
v -1.271786 4.245201 0.000000
v -1.253328 4.245193 -0.187419
v -1.198663 4.245173 -0.367635
v -1.109892 4.245139 -0.533723
v -0.990425 4.245093 -0.679301
v -0.844804 4.245028 -0.798774
v -0.678770 4.245007 -0.887550
v -0.498656 4.244998 -0.942218
vn 0.0032 0.7038 -0.7104
vn 0.0008 -0.4799 -0.8773
vn 0.1402 0.7100 -0.6901
vn 0.1722 -0.4809 -0.8597
vn 0.2695 0.7157 -0.6443
vn 0.3367 -0.4817 -0.8091
vn 0.3868 0.7208 -0.5752
vn 0.4880 -0.4822 -0.7275
vn 0.4881 0.7250 -0.4859
vn 0.6204 -0.4826 -0.6182
vn 0.5703 0.7285 -0.3797
vn 0.7289 -0.4828 -0.4854
vn 0.6308 0.7310 -0.2605
vn 0.8094 -0.4829 -0.3342
vn 0.6678 0.7325 -0.1325
vn 0.8589 -0.4830 -0.1703
vn 0.6803 0.7330 -0.0000
vn 0.8756 -0.4830 -0.0000
vn 0.6678 0.7325 0.1325
vn 0.8589 -0.4830 0.1703
vn 0.6308 0.7310 0.2605
vn 0.8094 -0.4829 0.3342
vn 0.5703 0.7285 0.3797
vn 0.7289 -0.4828 0.4854
vn 0.4881 0.7250 0.4859
vn 0.6204 -0.4826 0.6182
vn 0.3868 0.7208 0.5752
vn 0.4880 -0.4822 0.7275
vn 0.2695 0.7157 0.6443
vn 0.3367 -0.4817 0.8091
vn 0.1402 0.7100 0.6901
vn 0.1722 -0.4809 0.8597
vn 0.0032 0.7038 0.7104
vn 0.0008 -0.4799 0.8773
vn -0.1365 0.6974 0.7036
vn -0.1709 -0.4787 0.8612
vn -0.2734 0.6910 0.6692
vn -0.3362 -0.4774 0.8118
vn -0.4021 0.6848 0.6078
vn -0.4888 -0.4761 0.7310
vn -0.5169 0.6792 0.5211
vn -0.6226 -0.4748 0.6220
vn -0.6125 0.6744 0.4123
vn -0.7326 -0.4736 0.4889
vn -0.6845 0.6708 0.2855
vn -0.8143 -0.4727 0.3368
vn -0.7292 0.6685 0.1460
vn -0.8646 -0.4721 0.1717
vn -0.7444 0.6678 -0.0000
vn -0.8816 -0.4719 -0.0000
vn -0.7292 0.6685 -0.1460
vn -0.8646 -0.4721 -0.1717
vn -0.6845 0.6708 -0.2855
vn -0.8143 -0.4727 -0.3368
vn -0.6125 0.6744 -0.4123
vn -0.7326 -0.4736 -0.4889
vn -0.5169 0.6792 -0.5211
vn -0.6226 -0.4748 -0.6220
vn -0.4021 0.6848 -0.6078
vn -0.4888 -0.4761 -0.7310
vn -0.2734 0.6910 -0.6692
vn -0.3362 -0.4774 -0.8118
vn -0.1365 0.6974 -0.7036
vn -0.1709 -0.4787 -0.8612
vn 0.0014 0.0205 -0.9998
vn 0.1964 -0.0129 -0.9804
vn 0.3834 -0.0451 -0.9225
vn 0.5549 -0.0746 -0.8285
vn 0.7043 -0.1003 -0.7028
vn 0.8258 -0.1212 -0.5507
vn 0.9154 -0.1367 -0.3786
vn 0.9703 -0.1462 -0.1928
vn 0.9888 -0.1493 -0.0000
vn 0.9703 -0.1462 0.1928
vn 0.9154 -0.1367 0.3786
vn 0.8258 -0.1212 0.5507
vn 0.7043 -0.1003 0.7028
vn 0.5549 -0.0746 0.8285
vn 0.3834 -0.0451 0.9225
vn 0.1964 -0.0129 0.9804
vn 0.0014 0.0205 0.9998
vn -0.1934 0.0539 0.9796
vn -0.3800 0.0857 0.9210
vn -0.5507 0.1148 0.8267
vn -0.6992 0.1400 0.7011
vn -0.8201 0.1605 0.5493
vn -0.9092 0.1755 0.3776
vn -0.9638 0.1847 0.1921
vn -0.9822 0.1878 -0.0000
vn -0.9638 0.1847 -0.1921
vn -0.9092 0.1755 -0.3776
vn -0.8201 0.1605 -0.5493
vn -0.6992 0.1400 -0.7011
vn -0.5507 0.1148 -0.8267
vn -0.3800 0.0857 -0.9210
vn -0.1934 0.0539 -0.9796
vn 0.0006 -0.1096 -0.9940
vn 0.1947 -0.1004 -0.9757
vn 0.3816 -0.0915 -0.9198
vn 0.5541 -0.0832 -0.8283
vn 0.7055 -0.0759 -0.7047
vn 0.8297 -0.0698 -0.5538
vn 0.9220 -0.0653 -0.3816
vn 0.9789 -0.0625 -0.1946
vn 0.9981 -0.0616 -0.0000
vn 0.9789 -0.0625 0.1946
vn 0.9220 -0.0653 0.3816
vn 0.8297 -0.0698 0.5538
vn 0.7055 -0.0759 0.7047
vn 0.5541 -0.0832 0.8283
vn 0.3816 -0.0915 0.9198
vn 0.1947 -0.1004 0.9757
vn 0.0006 -0.1096 0.9940
vn -0.1931 -0.1187 0.9740
vn -0.3791 -0.1273 0.9166
vn -0.5500 -0.1351 0.8241
vn -0.6996 -0.1418 0.7003
vn -0.8221 -0.1473 0.5499
vn -0.9131 -0.1512 0.3787
vn -0.9691 -0.1537 0.1930
vn -0.9880 -0.1545 -0.0000
vn -0.9691 -0.1537 -0.1930
vn -0.9131 -0.1512 -0.3787
vn -0.8221 -0.1473 -0.5499
vn -0.6996 -0.1418 -0.7003
vn -0.5500 -0.1351 -0.8241
vn -0.3791 -0.1273 -0.9166
vn -0.1931 -0.1187 -0.9740
vn 0.1890 0.1626 -0.9684
vn 0.3736 0.1771 -0.9105
vn 0.5430 0.1903 -0.8179
vn 0.6908 0.2019 -0.6943
vn 0.8116 0.2113 -0.5446
vn 0.9011 0.2183 -0.3746
vn 0.9560 0.2226 -0.1908
vn 0.9746 0.2240 -0.0000
vn 0.9560 0.2226 0.1908
vn 0.9011 0.2183 0.3746
vn 0.8116 0.2113 0.5446
vn 0.6908 0.2019 0.6943
vn 0.5430 0.1903 0.8179
vn 0.3736 0.1771 0.9105
vn 0.1890 0.1626 0.9684
vn -0.0037 0.1474 0.9891
vn -0.1970 0.1322 0.9714
vn -0.3833 0.1176 0.9161
vn -0.5552 0.1041 0.8252
vn -0.7060 0.0923 0.7022
vn -0.8298 0.0826 0.5519
vn -0.9218 0.0754 0.3802
vn -0.9785 0.0710 0.1938
vn -0.9976 0.0695 -0.0000
vn -0.9785 0.0710 -0.1938
vn -0.9218 0.0754 -0.3802
vn -0.8298 0.0826 -0.5519
vn -0.7060 0.0923 -0.7022
vn -0.5552 0.1041 -0.8252
vn -0.3833 0.1176 -0.9161
vn -0.1970 0.1322 -0.9714
vn -0.0037 0.1474 -0.9891
vn 0.1447 0.6779 -0.7207
vn 0.2791 0.6868 -0.6712
vn 0.4002 0.6946 -0.5977
vn 0.5043 0.7014 -0.5037
vn 0.5884 0.7067 -0.3928
vn 0.6500 0.7106 -0.2691
vn 0.6877 0.7130 -0.1367
vn 0.7003 0.7138 -0.0000
vn 0.6877 0.7130 0.1367
vn 0.6500 0.7106 0.2691
vn 0.5884 0.7067 0.3928
vn 0.5043 0.7014 0.5037
vn 0.4002 0.6946 0.5977
vn 0.2791 0.6868 0.6712
vn 0.1447 0.6779 0.7207
vn 0.0016 0.6684 0.7438
vn -0.1449 0.6586 0.7384
vn -0.2893 0.6488 0.7038
vn -0.4254 0.6395 0.6404
vn -0.5471 0.6311 0.5499
vn -0.6488 0.6240 0.4355
vn -0.7254 0.6187 0.3018
vn -0.7730 0.6153 0.1544
vn -0.7891 0.6142 -0.0000
vn -0.7730 0.6153 -0.1544
vn -0.7254 0.6187 -0.3018
vn -0.6488 0.6240 -0.4355
vn -0.5471 0.6311 -0.5499
vn -0.4254 0.6395 -0.6404
vn -0.2893 0.6488 -0.7038
vn -0.1449 0.6586 -0.7384
vn 0.0016 0.6684 -0.7438
vn 0.0014 0.4251 -0.9051
vn 0.1759 0.4450 -0.8781
vn 0.3400 0.4636 -0.8182
vn 0.4879 0.4804 -0.7288
vn 0.6149 0.4949 -0.6140
vn 0.7171 0.5066 -0.4787
vn 0.7920 0.5151 -0.3278
vn 0.8376 0.5203 -0.1665
vn 0.8529 0.5220 -0.0000
vn 0.8376 0.5203 0.1665
vn 0.7920 0.5151 0.3278
vn 0.7171 0.5066 0.4787
vn 0.6149 0.4949 0.6140
vn 0.4879 0.4804 0.7288
vn 0.3400 0.4636 0.8182
vn 0.1759 0.4450 0.8781
vn 0.0014 0.4251 0.9051
vn -0.1769 0.4049 0.8971
vn -0.3517 0.3851 0.8532
vn -0.5156 0.3665 0.7745
vn -0.6614 0.3500 0.6634
vn -0.7824 0.3364 0.5241
vn -0.8731 0.3261 0.3625
vn -0.9292 0.3198 0.1853
vn -0.9482 0.3176 -0.0000
vn -0.9292 0.3198 -0.1853
vn -0.8731 0.3261 -0.3625
vn -0.7824 0.3364 -0.5241
vn -0.6614 0.3500 -0.6634
vn -0.5156 0.3665 -0.7745
vn -0.3517 0.3851 -0.8532
vn -0.1769 0.4049 -0.8971
vn -0.0003 -0.3874 -0.9219
vn 0.1800 -0.3873 -0.9042
vn 0.3533 -0.3871 -0.8517
vn 0.5129 -0.3868 -0.7664
vn 0.6527 -0.3864 -0.6516
vn 0.7674 -0.3861 -0.5119
vn 0.8526 -0.3858 -0.3525
vn 0.9050 -0.3856 -0.1797
vn 0.9227 -0.3855 -0.0000
vn 0.9050 -0.3856 0.1797
vn 0.8526 -0.3858 0.3525
vn 0.7674 -0.3861 0.5119
vn 0.6527 -0.3864 0.6516
vn 0.5129 -0.3868 0.7664
vn 0.3533 -0.3871 0.8517
vn 0.1800 -0.3873 0.9042
vn -0.0003 -0.3874 0.9219
vn -0.1805 -0.3874 0.9041
vn -0.3537 -0.3872 0.8515
vn -0.5132 -0.3869 0.7661
vn -0.6530 -0.3866 0.6513
vn -0.7675 -0.3863 0.5116
vn -0.8526 -0.3860 0.3523
vn -0.9050 -0.3858 0.1796
vn -0.9226 -0.3857 -0.0000
vn -0.9050 -0.3858 -0.1796
vn -0.8526 -0.3860 -0.3523
vn -0.7675 -0.3863 -0.5116
vn -0.6530 -0.3866 -0.6513
vn -0.5132 -0.3869 -0.7661
vn -0.3537 -0.3872 -0.8515
vn -0.1805 -0.3874 -0.9041
vn 0.1894 -0.2113 -0.9589
vn 0.3736 -0.2054 -0.9046
vn 0.5437 -0.1998 -0.8152
vn 0.6931 -0.1948 -0.6940
vn 0.8160 -0.1906 -0.5457
vn 0.9074 -0.1874 -0.3761
vn 0.9637 -0.1855 -0.1918
vn 0.9828 -0.1848 -0.0000
vn 0.9637 -0.1855 0.1918
vn 0.9074 -0.1874 0.3761
vn 0.8160 -0.1906 0.5457
vn 0.6931 -0.1948 0.6940
vn 0.5437 -0.1998 0.8152
vn 0.3736 -0.2054 0.9046
vn 0.1894 -0.2113 0.9589
vn -0.0015 -0.2174 0.9761
vn -0.1918 -0.2233 0.9557
vn -0.3741 -0.2288 0.8987
vn -0.5416 -0.2338 0.8075
vn -0.6879 -0.2380 0.6857
vn -0.8076 -0.2415 0.5381
vn -0.8963 -0.2440 0.3703
vn -0.9509 -0.2455 0.1886
vn -0.9693 -0.2460 -0.0000
vn -0.9509 -0.2455 -0.1886
vn -0.8963 -0.2440 -0.3703
vn -0.8076 -0.2415 -0.5381
vn -0.6879 -0.2380 -0.6857
vn -0.5416 -0.2338 -0.8075
vn -0.3741 -0.2288 -0.8987
vn -0.1918 -0.2233 -0.9557
vn -0.0015 -0.2174 -0.9761
vn 0.1997 -0.0852 -0.9762
vn 0.3856 -0.0952 -0.9177
vn 0.5563 -0.1043 -0.8244
vn 0.7055 -0.1121 -0.6998
vn 0.8274 -0.1185 -0.5490
vn 0.9176 -0.1231 -0.3779
vn 0.9731 -0.1260 -0.1926
vn 0.9919 -0.1270 -0.0000
vn 0.9731 -0.1260 0.1926
vn 0.9176 -0.1231 0.3779
vn 0.8274 -0.1185 0.5490
vn 0.7055 -0.1121 0.6998
vn 0.5563 -0.1043 0.8244
vn 0.3856 -0.0952 0.9177
vn 0.1997 -0.0852 0.9762
vn 0.0056 -0.0746 0.9972
vn -0.1891 -0.0639 0.9799
vn -0.3770 -0.0535 0.9247
vn -0.5507 -0.0438 0.8335
vn -0.7034 -0.0353 0.7099
vn -0.8290 -0.0283 0.5586
vn -0.9225 -0.0231 0.3853
vn -0.9803 -0.0198 0.1965
vn -0.9998 -0.0187 -0.0000
vn -0.9803 -0.0198 -0.1965
vn -0.9225 -0.0231 -0.3853
vn -0.8290 -0.0283 -0.5586
vn -0.7034 -0.0353 -0.7099
vn -0.5507 -0.0438 -0.8335
vn -0.3770 -0.0535 -0.9247
vn -0.1891 -0.0639 -0.9799
vn 0.0056 -0.0746 -0.9972
vn -0.0065 0.1144 -0.9934
vn 0.1879 0.0977 -0.9773
vn 0.3758 0.0813 -0.9231
vn 0.5498 0.0661 -0.8327
vn 0.7029 0.0525 -0.7093
vn 0.8288 0.0413 -0.5580
vn 0.9224 0.0330 -0.3848
vn 0.9802 0.0279 -0.1962
vn 0.9997 0.0261 -0.0000
vn 0.9802 0.0279 0.1962
vn 0.9224 0.0330 0.3848
vn 0.8288 0.0413 0.5580
vn 0.7029 0.0525 0.7093
vn 0.5498 0.0661 0.8327
vn 0.3758 0.0813 0.9231
vn 0.1879 0.0977 0.9773
vn -0.0065 0.1144 0.9934
vn -0.1997 0.1308 0.9711
vn -0.3841 0.1462 0.9116
vn -0.5528 0.1599 0.8178
vn -0.6997 0.1717 0.6934
vn -0.8197 0.1812 0.5434
vn -0.9083 0.1881 0.3736
vn -0.9627 0.1923 0.1902
vn -0.9811 0.1937 -0.0000
vn -0.9627 0.1923 -0.1902
vn -0.9083 0.1881 -0.3736
vn -0.8197 0.1812 -0.5434
vn -0.6997 0.1717 -0.6934
vn -0.5528 0.1599 -0.8178
vn -0.3841 0.1462 -0.9116
vn -0.1997 0.1308 -0.9711
vt 1.000000 0.905853
vt 1.000000 1.000000
vt 0.968750 1.000000
vt 0.968750 0.905853
vt 0.937500 1.000000
vt 0.937500 0.905853
vt 0.906250 1.000000
vt 0.906250 0.905853
vt 0.875000 1.000000
vt 0.875000 0.905853
vt 0.843750 1.000000
vt 0.843750 0.905853
vt 0.812500 1.000000
vt 0.812500 0.905853
vt 0.781250 1.000000
vt 0.781250 0.905853
vt 0.750000 1.000000
vt 0.750000 0.905853
vt 0.718750 1.000000
vt 0.718750 0.905853
vt 0.687500 1.000000
vt 0.687500 0.905853
vt 0.656250 1.000000
vt 0.656250 0.905853
vt 0.625000 1.000000
vt 0.625000 0.905853
vt 0.593750 1.000000
vt 0.593750 0.905853
vt 0.562500 1.000000
vt 0.562500 0.905853
vt 0.531250 1.000000
vt 0.531250 0.905853
vt 0.500000 1.000000
vt 0.500000 0.905853
vt 0.468750 1.000000
vt 0.468750 0.905852
vt 0.437500 1.000000
vt 0.437500 0.905853
vt 0.406250 1.000000
vt 0.406250 0.905853
vt 0.375000 1.000000
vt 0.375000 0.905853
vt 0.343750 1.000000
vt 0.343750 0.905853
vt 0.312500 1.000000
vt 0.312500 0.905853
vt 0.281250 1.000000
vt 0.281250 0.905853
vt 0.250000 1.000000
vt 0.250000 0.905853
vt 0.218750 1.000000
vt 0.218750 0.905853
vt 0.187500 1.000000
vt 0.187500 0.905853
vt 0.156250 1.000000
vt 0.156250 0.905853
vt 0.125000 1.000000
vt 0.125000 0.905853
vt 0.093750 1.000000
vt 0.093750 0.905853
vt 0.062500 1.000000
vt 0.062500 0.905853
vt 0.031250 1.000000
vt 0.031250 0.905853
vt 0.000000 1.000000
vt 0.000000 0.905853
vt 0.031250 0.375000
vt 0.031250 0.500000
vt 0.000000 0.500000
vt 0.000000 0.375000
vt 0.062500 0.375000
vt 0.062500 0.500000
vt 0.093750 0.375000
vt 0.093750 0.500000
vt 0.125000 0.375000
vt 0.125000 0.500000
vt 0.156250 0.375000
vt 0.156250 0.500000
vt 0.187500 0.375000
vt 0.187500 0.500000
vt 0.218750 0.375000
vt 0.218750 0.500000
vt 0.250000 0.375000
vt 0.250000 0.500000
vt 0.281250 0.375000
vt 0.281250 0.500000
vt 0.312500 0.375000
vt 0.312500 0.500000
vt 0.343750 0.375000
vt 0.343750 0.500000
vt 0.375000 0.375000
vt 0.375000 0.500000
vt 0.406250 0.375000
vt 0.406250 0.500000
vt 0.437500 0.375000
vt 0.437500 0.500000
vt 0.468750 0.375000
vt 0.468750 0.500000
vt 0.500000 0.375000
vt 0.500000 0.500000
vt 0.531250 0.375000
vt 0.531250 0.500000
vt 0.562500 0.375000
vt 0.562500 0.500000
vt 0.593750 0.375000
vt 0.593750 0.500000
vt 0.625000 0.375000
vt 0.625000 0.500000
vt 0.656250 0.375000
vt 0.656250 0.500000
vt 0.687500 0.375000
vt 0.687500 0.500000
vt 0.718750 0.375000
vt 0.718750 0.500000
vt 0.750000 0.375000
vt 0.750000 0.500000
vt 0.781250 0.375000
vt 0.781250 0.500000
vt 0.812500 0.375000
vt 0.812500 0.500000
vt 0.843750 0.375000
vt 0.843750 0.500000
vt 0.875000 0.375000
vt 0.875000 0.500000
vt 0.906250 0.375000
vt 0.906250 0.500000
vt 0.937500 0.375000
vt 0.937500 0.500000
vt 0.968750 0.375000
vt 0.968750 0.500000
vt 1.000000 0.375000
vt 1.000000 0.500000
vt 0.031250 0.633992
vt 0.031250 0.750000
vt 0.000000 0.750000
vt 0.000000 0.633992
vt 0.062500 0.633992
vt 0.062500 0.750000
vt 0.093750 0.633992
vt 0.093750 0.750000
vt 0.125000 0.633992
vt 0.125000 0.750000
vt 0.156250 0.633992
vt 0.156250 0.750000
vt 0.187500 0.633992
vt 0.187500 0.750000
vt 0.218750 0.633992
vt 0.218750 0.750000
vt 0.250000 0.633992
vt 0.250000 0.750000
vt 0.281250 0.633992
vt 0.281250 0.750000
vt 0.312500 0.633992
vt 0.312500 0.750000
vt 0.343750 0.633992
vt 0.343750 0.750000
vt 0.375000 0.633992
vt 0.375000 0.750000
vt 0.406250 0.633992
vt 0.406250 0.750000
vt 0.437500 0.633992
vt 0.437500 0.750000
vt 0.468750 0.633992
vt 0.468750 0.750000
vt 0.500000 0.633992
vt 0.500000 0.750000
vt 0.531250 0.633992
vt 0.531250 0.750000
vt 0.562500 0.633992
vt 0.562500 0.750000
vt 0.593750 0.633992
vt 0.593750 0.750000
vt 0.625000 0.633992
vt 0.625000 0.750000
vt 0.656250 0.633992
vt 0.656250 0.750000
vt 0.687500 0.633992
vt 0.687500 0.750000
vt 0.718750 0.633992
vt 0.718750 0.750000
vt 0.750000 0.633992
vt 0.750000 0.750000
vt 0.781250 0.633992
vt 0.781250 0.750000
vt 0.812500 0.633992
vt 0.812500 0.750000
vt 0.843750 0.633992
vt 0.843750 0.750000
vt 0.875000 0.633992
vt 0.875000 0.750000
vt 0.906250 0.633992
vt 0.906250 0.750000
vt 0.937500 0.633992
vt 0.937500 0.750000
vt 0.968750 0.633992
vt 0.968750 0.750000
vt 1.000000 0.633992
vt 1.000000 0.750000
vt 1.000000 0.160447
vt 1.000000 0.250000
vt 0.968750 0.250000
vt 0.968750 0.160447
vt 0.937500 0.250000
vt 0.937500 0.160447
vt 0.906250 0.250000
vt 0.906250 0.160447
vt 0.875000 0.250000
vt 0.875000 0.160447
vt 0.843750 0.250000
vt 0.843750 0.160447
vt 0.812500 0.250000
vt 0.812500 0.160447
vt 0.781250 0.250000
vt 0.781250 0.160447
vt 0.750000 0.250000
vt 0.750000 0.160447
vt 0.718750 0.250000
vt 0.718750 0.160447
vt 0.687500 0.250000
vt 0.687500 0.160447
vt 0.656250 0.250000
vt 0.656250 0.160447
vt 0.625000 0.250000
vt 0.625000 0.160447
vt 0.593750 0.250000
vt 0.593750 0.160447
vt 0.562500 0.250000
vt 0.562500 0.160447
vt 0.531250 0.250000
vt 0.531250 0.160447
vt 0.500000 0.250000
vt 0.500000 0.160447
vt 0.468750 0.250000
vt 0.468750 0.160447
vt 0.437500 0.250000
vt 0.437500 0.160447
vt 0.406250 0.250000
vt 0.406250 0.160447
vt 0.375000 0.250000
vt 0.375000 0.160447
vt 0.343750 0.250000
vt 0.343750 0.160447
vt 0.312500 0.250000
vt 0.312500 0.160447
vt 0.281250 0.250000
vt 0.281250 0.160447
vt 0.250000 0.250000
vt 0.250000 0.160447
vt 0.218750 0.250000
vt 0.218750 0.160447
vt 0.187500 0.250000
vt 0.187500 0.160447
vt 0.156250 0.250000
vt 0.156250 0.160447
vt 0.125000 0.250000
vt 0.125000 0.160447
vt 0.093750 0.250000
vt 0.093750 0.160447
vt 0.062500 0.250000
vt 0.062500 0.160447
vt 0.031250 0.250000
vt 0.031250 0.160447
vt 0.000000 0.250000
vt 0.000000 0.160447
vt 0.031250 0.000000
vt 0.031250 0.086075
vt 0.000000 0.086075
vt 0.000000 0.000000
vt 0.062500 0.000000
vt 0.062500 0.086075
vt 0.093750 0.000000
vt 0.093750 0.086075
vt 0.125000 0.000000
vt 0.125000 0.086075
vt 0.156250 0.000000
vt 0.156250 0.086075
vt 0.187500 0.000000
vt 0.187500 0.086075
vt 0.218750 0.000000
vt 0.218750 0.086075
vt 0.250000 0.000000
vt 0.250000 0.086075
vt 0.281250 0.000000
vt 0.281250 0.086075
vt 0.312500 0.000000
vt 0.312500 0.086075
vt 0.343750 0.000000
vt 0.343750 0.086075
vt 0.375000 0.000000
vt 0.375000 0.086075
vt 0.406250 0.000000
vt 0.406250 0.086075
vt 0.437500 0.000000
vt 0.437500 0.086075
vt 0.468750 0.000000
vt 0.468750 0.086075
vt 0.500000 0.000000
vt 0.500000 0.086075
vt 0.531250 0.000000
vt 0.531250 0.086075
vt 0.562500 0.000000
vt 0.562500 0.086075
vt 0.593750 0.000000
vt 0.593750 0.086075
vt 0.625000 0.000000
vt 0.625000 0.086075
vt 0.656250 0.000000
vt 0.656250 0.086075
vt 0.687500 0.000000
vt 0.687500 0.086075
vt 0.718750 0.000000
vt 0.718750 0.086075
vt 0.750000 0.000000
vt 0.750000 0.086075
vt 0.781250 0.000000
vt 0.781250 0.086075
vt 0.812500 0.000000
vt 0.812500 0.086075
vt 0.843750 0.000000
vt 0.843750 0.086075
vt 0.875000 0.000000
vt 0.875000 0.086075
vt 0.906250 0.000000
vt 0.906250 0.086075
vt 0.937500 0.000000
vt 0.937500 0.086075
vt 0.968750 0.000000
vt 0.968750 0.086075
vt 1.000000 0.000000
vt 1.000000 0.086075
vt 0.031250 0.824480
vt 0.000000 0.824480
vt 0.062500 0.824480
vt 0.093750 0.824480
vt 0.125000 0.824480
vt 0.156250 0.824480
vt 0.187500 0.824480
vt 0.218750 0.824480
vt 0.250000 0.824480
vt 0.281250 0.824480
vt 0.312500 0.824480
vt 0.343750 0.824480
vt 0.375000 0.824480
vt 0.406250 0.824480
vt 0.437500 0.824480
vt 0.468750 0.824480
vt 0.500000 0.824480
vt 0.531250 0.824480
vt 0.562500 0.824480
vt 0.593750 0.824480
vt 0.625000 0.824480
vt 0.656250 0.824480
vt 0.687500 0.824480
vt 0.718750 0.824480
vt 0.750000 0.824480
vt 0.781250 0.824480
vt 0.812500 0.824480
vt 0.843750 0.824480
vt 0.875000 0.824480
vt 0.906250 0.824480
vt 0.937500 0.824480
vt 0.968750 0.824480
vt 1.000000 0.824480
s 1
f 225/1/225 2/2/2 4/3/4 226/4/226
f 226/4/226 4/3/4 6/5/6 227/6/227
f 227/6/227 6/5/6 8/7/8 228/8/228
f 228/8/228 8/7/8 10/9/10 229/10/229
f 229/10/229 10/9/10 12/11/12 230/12/230
f 230/12/230 12/11/12 14/13/14 231/14/231
f 231/14/231 14/13/14 16/15/16 232/16/232
f 232/16/232 16/15/16 18/17/18 233/18/233
f 233/18/233 18/17/18 20/19/20 234/20/234
f 234/20/234 20/19/20 22/21/22 235/22/235
f 235/22/235 22/21/22 24/23/24 236/24/236
f 236/24/236 24/23/24 26/25/26 237/26/237
f 237/26/237 26/25/26 28/27/28 238/28/238
f 238/28/238 28/27/28 30/29/30 239/30/239
f 239/30/239 30/29/30 32/31/32 240/32/240
f 240/32/240 32/31/32 34/33/34 241/34/241
f 241/34/241 34/33/34 36/35/36 242/36/242
f 242/36/242 36/35/36 38/37/38 243/38/243
f 243/38/243 38/37/38 40/39/40 244/40/244
f 244/40/244 40/39/40 42/41/42 245/42/245
f 245/42/245 42/41/42 44/43/44 246/44/246
f 246/44/246 44/43/44 46/45/46 247/46/247
f 247/46/247 46/45/46 48/47/48 248/48/248
f 248/48/248 48/47/48 50/49/50 249/50/249
f 249/50/249 50/49/50 52/51/52 250/52/250
f 250/52/250 52/51/52 54/53/54 251/54/251
f 251/54/251 54/53/54 56/55/56 252/56/252
f 252/56/252 56/55/56 58/57/58 253/58/253
f 253/58/253 58/57/58 60/59/60 254/60/254
f 254/60/254 60/59/60 62/61/62 255/62/255
f 255/62/255 62/61/62 64/63/64 256/64/256
f 256/64/256 64/63/64 2/65/2 225/66/225
f 352/67/352 96/68/96 65/69/65 321/70/321
f 351/71/351 95/72/95 96/68/96 352/67/352
f 350/73/350 94/74/94 95/72/95 351/71/351
f 349/75/349 93/76/93 94/74/94 350/73/350
f 348/77/348 92/78/92 93/76/93 349/75/349
f 347/79/347 91/80/91 92/78/92 348/77/348
f 346/81/346 90/82/90 91/80/91 347/79/347
f 345/83/345 89/84/89 90/82/90 346/81/346
f 344/85/344 88/86/88 89/84/89 345/83/345
f 343/87/343 87/88/87 88/86/88 344/85/344
f 342/89/342 86/90/86 87/88/87 343/87/343
f 341/91/341 85/92/85 86/90/86 342/89/342
f 340/93/340 84/94/84 85/92/85 341/91/341
f 339/95/339 83/96/83 84/94/84 340/93/340
f 338/97/338 82/98/82 83/96/83 339/95/339
f 337/99/337 81/100/81 82/98/82 338/97/338
f 336/101/336 80/102/80 81/100/81 337/99/337
f 335/103/335 79/104/79 80/102/80 336/101/336
f 334/105/334 78/106/78 79/104/79 335/103/335
f 333/107/333 77/108/77 78/106/78 334/105/334
f 332/109/332 76/110/76 77/108/77 333/107/333
f 331/111/331 75/112/75 76/110/76 332/109/332
f 330/113/330 74/114/74 75/112/75 331/111/331
f 329/115/329 73/116/73 74/114/74 330/113/330
f 328/117/328 72/118/72 73/116/73 329/115/329
f 327/119/327 71/120/71 72/118/72 328/117/328
f 326/121/326 70/122/70 71/120/71 327/119/327
f 325/123/325 69/124/69 70/122/70 326/121/326
f 324/125/324 68/126/68 69/124/69 325/123/325
f 323/127/323 67/128/67 68/126/68 324/125/324
f 322/129/322 66/130/66 67/128/67 323/127/323
f 321/131/321 65/132/65 66/130/66 322/129/322
f 319/133/319 128/134/128 97/135/97 320/136/320
f 318/137/318 127/138/127 128/134/128 319/133/319
f 317/139/317 126/140/126 127/138/127 318/137/318
f 316/141/316 125/142/125 126/140/126 317/139/317
f 315/143/315 124/144/124 125/142/125 316/141/316
f 314/145/314 123/146/123 124/144/124 315/143/315
f 313/147/313 122/148/122 123/146/123 314/145/314
f 312/149/312 121/150/121 122/148/122 313/147/313
f 311/151/311 120/152/120 121/150/121 312/149/312
f 310/153/310 119/154/119 120/152/120 311/151/311
f 309/155/309 118/156/118 119/154/119 310/153/310
f 308/157/308 117/158/117 118/156/118 309/155/309
f 307/159/307 116/160/116 117/158/117 308/157/308
f 306/161/306 115/162/115 116/160/116 307/159/307
f 305/163/305 114/164/114 115/162/115 306/161/306
f 304/165/304 113/166/113 114/164/114 305/163/305
f 303/167/303 112/168/112 113/166/113 304/165/304
f 302/169/302 111/170/111 112/168/112 303/167/303
f 301/171/301 110/172/110 111/170/111 302/169/302
f 300/173/300 109/174/109 110/172/110 301/171/301
f 299/175/299 108/176/108 109/174/109 300/173/300
f 298/177/298 107/178/107 108/176/108 299/175/299
f 297/179/297 106/180/106 107/178/107 298/177/298
f 296/181/296 105/182/105 106/180/106 297/179/297
f 295/183/295 104/184/104 105/182/105 296/181/296
f 294/185/294 103/186/103 104/184/104 295/183/295
f 293/187/293 102/188/102 103/186/103 294/185/294
f 292/189/292 101/190/101 102/188/102 293/187/293
f 291/191/291 100/192/100 101/190/101 292/189/292
f 290/193/290 99/194/99 100/192/100 291/191/291
f 289/195/289 98/196/98 99/194/99 290/193/290
f 320/197/320 97/198/97 98/196/98 289/195/289
f 193/199/193 160/200/160 129/201/129 194/202/194
f 194/202/194 129/201/129 130/203/130 195/204/195
f 195/204/195 130/203/130 131/205/131 196/206/196
f 196/206/196 131/205/131 132/207/132 197/208/197
f 197/208/197 132/207/132 133/209/133 198/210/198
f 198/210/198 133/209/133 134/211/134 199/212/199
f 199/212/199 134/211/134 135/213/135 200/214/200
f 200/214/200 135/213/135 136/215/136 201/216/201
f 201/216/201 136/215/136 137/217/137 202/218/202
f 202/218/202 137/217/137 138/219/138 203/220/203
f 203/220/203 138/219/138 139/221/139 204/222/204
f 204/222/204 139/221/139 140/223/140 205/224/205
f 205/224/205 140/223/140 141/225/141 206/226/206
f 206/226/206 141/225/141 142/227/142 207/228/207
f 207/228/207 142/227/142 143/229/143 208/230/208
f 208/230/208 143/229/143 144/231/144 209/232/209
f 209/232/209 144/231/144 145/233/145 210/234/210
f 210/234/210 145/233/145 146/235/146 211/236/211
f 211/236/211 146/235/146 147/237/147 212/238/212
f 212/238/212 147/237/147 148/239/148 213/240/213
f 213/240/213 148/239/148 149/241/149 214/242/214
f 214/242/214 149/241/149 150/243/150 215/244/215
f 215/244/215 150/243/150 151/245/151 216/246/216
f 216/246/216 151/245/151 152/247/152 217/248/217
f 217/248/217 152/247/152 153/249/153 218/250/218
f 218/250/218 153/249/153 154/251/154 219/252/219
f 219/252/219 154/251/154 155/253/155 220/254/220
f 220/254/220 155/253/155 156/255/156 221/256/221
f 221/256/221 156/255/156 157/257/157 222/258/222
f 222/258/222 157/257/157 158/259/158 223/260/223
f 223/260/223 158/259/158 159/261/159 224/262/224
f 224/262/224 159/261/159 160/263/160 193/264/193
f 63/265/63 191/266/191 192/267/192 1/268/1
f 61/269/61 190/270/190 191/266/191 63/265/63
f 59/271/59 189/272/189 190/270/190 61/269/61
f 57/273/57 188/274/188 189/272/189 59/271/59
f 55/275/55 187/276/187 188/274/188 57/273/57
f 53/277/53 186/278/186 187/276/187 55/275/55
f 51/279/51 185/280/185 186/278/186 53/277/53
f 49/281/49 184/282/184 185/280/185 51/279/51
f 47/283/47 183/284/183 184/282/184 49/281/49
f 45/285/45 182/286/182 183/284/183 47/283/47
f 43/287/43 181/288/181 182/286/182 45/285/45
f 41/289/41 180/290/180 181/288/181 43/287/43
f 39/291/39 179/292/179 180/290/180 41/289/41
f 37/293/37 178/294/178 179/292/179 39/291/39
f 35/295/35 177/296/177 178/294/178 37/293/37
f 33/297/33 176/298/176 177/296/177 35/295/35
f 31/299/31 175/300/175 176/298/176 33/297/33
f 29/301/29 174/302/174 175/300/175 31/299/31
f 27/303/27 173/304/173 174/302/174 29/301/29
f 25/305/25 172/306/172 173/304/173 27/303/27
f 23/307/23 171/308/171 172/306/172 25/305/25
f 21/309/21 170/310/170 171/308/171 23/307/23
f 19/311/19 169/312/169 170/310/170 21/309/21
f 17/313/17 168/314/168 169/312/169 19/311/19
f 15/315/15 167/316/167 168/314/168 17/313/17
f 13/317/13 166/318/166 167/316/167 15/315/15
f 11/319/11 165/320/165 166/318/166 13/317/13
f 9/321/9 164/322/164 165/320/165 11/319/11
f 7/323/7 163/324/163 164/322/164 9/321/9
f 5/325/5 162/326/162 163/324/163 7/323/7
f 3/327/3 161/328/161 162/326/162 5/325/5
f 1/329/1 192/330/192 161/328/161 3/327/3
f 191/266/191 224/262/224 193/264/193 192/267/192
f 190/270/190 223/260/223 224/262/224 191/266/191
f 189/272/189 222/258/222 223/260/223 190/270/190
f 188/274/188 221/256/221 222/258/222 189/272/189
f 187/276/187 220/254/220 221/256/221 188/274/188
f 186/278/186 219/252/219 220/254/220 187/276/187
f 185/280/185 218/250/218 219/252/219 186/278/186
f 184/282/184 217/248/217 218/250/218 185/280/185
f 183/284/183 216/246/216 217/248/217 184/282/184
f 182/286/182 215/244/215 216/246/216 183/284/183
f 181/288/181 214/242/214 215/244/215 182/286/182
f 180/290/180 213/240/213 214/242/214 181/288/181
f 179/292/179 212/238/212 213/240/213 180/290/180
f 178/294/178 211/236/211 212/238/212 179/292/179
f 177/296/177 210/234/210 211/236/211 178/294/178
f 176/298/176 209/232/209 210/234/210 177/296/177
f 175/300/175 208/230/208 209/232/209 176/298/176
f 174/302/174 207/228/207 208/230/208 175/300/175
f 173/304/173 206/226/206 207/228/207 174/302/174
f 172/306/172 205/224/205 206/226/206 173/304/173
f 171/308/171 204/222/204 205/224/205 172/306/172
f 170/310/170 203/220/203 204/222/204 171/308/171
f 169/312/169 202/218/202 203/220/203 170/310/170
f 168/314/168 201/216/201 202/218/202 169/312/169
f 167/316/167 200/214/200 201/216/201 168/314/168
f 166/318/166 199/212/199 200/214/200 167/316/167
f 165/320/165 198/210/198 199/212/199 166/318/166
f 164/322/164 197/208/197 198/210/198 165/320/165
f 163/324/163 196/206/196 197/208/197 164/322/164
f 162/326/162 195/204/195 196/206/196 163/324/163
f 161/328/161 194/202/194 195/204/195 162/326/162
f 192/330/192 193/199/193 194/202/194 161/328/161
f 287/331/287 256/64/256 225/66/225 288/332/288
f 286/333/286 255/62/255 256/64/256 287/331/287
f 285/334/285 254/60/254 255/62/255 286/333/286
f 284/335/284 253/58/253 254/60/254 285/334/285
f 283/336/283 252/56/252 253/58/253 284/335/284
f 282/337/282 251/54/251 252/56/252 283/336/283
f 281/338/281 250/52/250 251/54/251 282/337/282
f 280/339/280 249/50/249 250/52/250 281/338/281
f 279/340/279 248/48/248 249/50/249 280/339/280
f 278/341/278 247/46/247 248/48/248 279/340/279
f 277/342/277 246/44/246 247/46/247 278/341/278
f 276/343/276 245/42/245 246/44/246 277/342/277
f 275/344/275 244/40/244 245/42/245 276/343/276
f 274/345/274 243/38/243 244/40/244 275/344/275
f 273/346/273 242/36/242 243/38/243 274/345/274
f 272/347/272 241/34/241 242/36/242 273/346/273
f 271/348/271 240/32/240 241/34/241 272/347/272
f 270/349/270 239/30/239 240/32/240 271/348/271
f 269/350/269 238/28/238 239/30/239 270/349/270
f 268/351/268 237/26/237 238/28/238 269/350/269
f 267/352/267 236/24/236 237/26/237 268/351/268
f 266/353/266 235/22/235 236/24/236 267/352/267
f 265/354/265 234/20/234 235/22/235 266/353/266
f 264/355/264 233/18/233 234/20/234 265/354/265
f 263/356/263 232/16/232 233/18/233 264/355/264
f 262/357/262 231/14/231 232/16/232 263/356/263
f 261/358/261 230/12/230 231/14/231 262/357/262
f 260/359/260 229/10/229 230/12/230 261/358/261
f 259/360/259 228/8/228 229/10/229 260/359/260
f 258/361/258 227/6/227 228/8/228 259/360/259
f 257/362/257 226/4/226 227/6/227 258/361/258
f 288/363/288 225/1/225 226/4/226 257/362/257
f 97/198/97 288/363/288 257/362/257 98/196/98
f 98/196/98 257/362/257 258/361/258 99/194/99
f 99/194/99 258/361/258 259/360/259 100/192/100
f 100/192/100 259/360/259 260/359/260 101/190/101
f 101/190/101 260/359/260 261/358/261 102/188/102
f 102/188/102 261/358/261 262/357/262 103/186/103
f 103/186/103 262/357/262 263/356/263 104/184/104
f 104/184/104 263/356/263 264/355/264 105/182/105
f 105/182/105 264/355/264 265/354/265 106/180/106
f 106/180/106 265/354/265 266/353/266 107/178/107
f 107/178/107 266/353/266 267/352/267 108/176/108
f 108/176/108 267/352/267 268/351/268 109/174/109
f 109/174/109 268/351/268 269/350/269 110/172/110
f 110/172/110 269/350/269 270/349/270 111/170/111
f 111/170/111 270/349/270 271/348/271 112/168/112
f 112/168/112 271/348/271 272/347/272 113/166/113
f 113/166/113 272/347/272 273/346/273 114/164/114
f 114/164/114 273/346/273 274/345/274 115/162/115
f 115/162/115 274/345/274 275/344/275 116/160/116
f 116/160/116 275/344/275 276/343/276 117/158/117
f 117/158/117 276/343/276 277/342/277 118/156/118
f 118/156/118 277/342/277 278/341/278 119/154/119
f 119/154/119 278/341/278 279/340/279 120/152/120
f 120/152/120 279/340/279 280/339/280 121/150/121
f 121/150/121 280/339/280 281/338/281 122/148/122
f 122/148/122 281/338/281 282/337/282 123/146/123
f 123/146/123 282/337/282 283/336/283 124/144/124
f 124/144/124 283/336/283 284/335/284 125/142/125
f 125/142/125 284/335/284 285/334/285 126/140/126
f 126/140/126 285/334/285 286/333/286 127/138/127
f 127/138/127 286/333/286 287/331/287 128/134/128
f 128/134/128 287/331/287 288/332/288 97/135/97
f 65/132/65 320/197/320 289/195/289 66/130/66
f 66/130/66 289/195/289 290/193/290 67/128/67
f 67/128/67 290/193/290 291/191/291 68/126/68
f 68/126/68 291/191/291 292/189/292 69/124/69
f 69/124/69 292/189/292 293/187/293 70/122/70
f 70/122/70 293/187/293 294/185/294 71/120/71
f 71/120/71 294/185/294 295/183/295 72/118/72
f 72/118/72 295/183/295 296/181/296 73/116/73
f 73/116/73 296/181/296 297/179/297 74/114/74
f 74/114/74 297/179/297 298/177/298 75/112/75
f 75/112/75 298/177/298 299/175/299 76/110/76
f 76/110/76 299/175/299 300/173/300 77/108/77
f 77/108/77 300/173/300 301/171/301 78/106/78
f 78/106/78 301/171/301 302/169/302 79/104/79
f 79/104/79 302/169/302 303/167/303 80/102/80
f 80/102/80 303/167/303 304/165/304 81/100/81
f 81/100/81 304/165/304 305/163/305 82/98/82
f 82/98/82 305/163/305 306/161/306 83/96/83
f 83/96/83 306/161/306 307/159/307 84/94/84
f 84/94/84 307/159/307 308/157/308 85/92/85
f 85/92/85 308/157/308 309/155/309 86/90/86
f 86/90/86 309/155/309 310/153/310 87/88/87
f 87/88/87 310/153/310 311/151/311 88/86/88
f 88/86/88 311/151/311 312/149/312 89/84/89
f 89/84/89 312/149/312 313/147/313 90/82/90
f 90/82/90 313/147/313 314/145/314 91/80/91
f 91/80/91 314/145/314 315/143/315 92/78/92
f 92/78/92 315/143/315 316/141/316 93/76/93
f 93/76/93 316/141/316 317/139/317 94/74/94
f 94/74/94 317/139/317 318/137/318 95/72/95
f 95/72/95 318/137/318 319/133/319 96/68/96
f 96/68/96 319/133/319 320/136/320 65/69/65
f 160/200/160 321/131/321 322/129/322 129/201/129
f 129/201/129 322/129/322 323/127/323 130/203/130
f 130/203/130 323/127/323 324/125/324 131/205/131
f 131/205/131 324/125/324 325/123/325 132/207/132
f 132/207/132 325/123/325 326/121/326 133/209/133
f 133/209/133 326/121/326 327/119/327 134/211/134
f 134/211/134 327/119/327 328/117/328 135/213/135
f 135/213/135 328/117/328 329/115/329 136/215/136
f 136/215/136 329/115/329 330/113/330 137/217/137
f 137/217/137 330/113/330 331/111/331 138/219/138
f 138/219/138 331/111/331 332/109/332 139/221/139
f 139/221/139 332/109/332 333/107/333 140/223/140
f 140/223/140 333/107/333 334/105/334 141/225/141
f 141/225/141 334/105/334 335/103/335 142/227/142
f 142/227/142 335/103/335 336/101/336 143/229/143
f 143/229/143 336/101/336 337/99/337 144/231/144
f 144/231/144 337/99/337 338/97/338 145/233/145
f 145/233/145 338/97/338 339/95/339 146/235/146
f 146/235/146 339/95/339 340/93/340 147/237/147
f 147/237/147 340/93/340 341/91/341 148/239/148
f 148/239/148 341/91/341 342/89/342 149/241/149
f 149/241/149 342/89/342 343/87/343 150/243/150
f 150/243/150 343/87/343 344/85/344 151/245/151
f 151/245/151 344/85/344 345/83/345 152/247/152
f 152/247/152 345/83/345 346/81/346 153/249/153
f 153/249/153 346/81/346 347/79/347 154/251/154
f 154/251/154 347/79/347 348/77/348 155/253/155
f 155/253/155 348/77/348 349/75/349 156/255/156
f 156/255/156 349/75/349 350/73/350 157/257/157
f 157/257/157 350/73/350 351/71/351 158/259/158
f 158/259/158 351/71/351 352/67/352 159/261/159
f 159/261/159 352/67/352 321/70/321 160/263/160
o TornadoLow
v -0.000000 -0.586804 -2.746085
v -0.000000 0.598766 -2.538698
v 0.535735 -0.586804 -2.693320
v 0.495275 0.598766 -2.489918
v 1.050881 -0.586804 -2.537052
v 0.971518 0.598766 -2.345451
v 1.525643 -0.586804 -2.283287
v 1.410425 0.598766 -2.110851
v 1.941776 -0.586804 -1.941776
v 1.795131 0.598766 -1.795131
v 2.283287 -0.586804 -1.525643
v 2.110851 0.598766 -1.410425
v 2.537052 -0.586804 -1.050881
v 2.345451 0.598766 -0.971518
v 2.693320 -0.586804 -0.535735
v 2.489918 0.598766 -0.495275
v 2.746085 -0.586804 0.000000
v 2.538698 0.598766 0.000000
v 2.693320 -0.586804 0.535735
v 2.489918 0.598766 0.495276
v 2.537052 -0.586804 1.050881
v 2.345451 0.598766 0.971518
v 2.283287 -0.586804 1.525643
v 2.110851 0.598766 1.410425
v 1.941776 -0.586804 1.941776
v 1.795131 0.598766 1.795131
v 1.525643 -0.586804 2.283287
v 1.410425 0.598766 2.110851
v 1.050881 -0.586804 2.537052
v 0.971518 0.598766 2.345451
v 0.535735 -0.586804 2.693320
v 0.495275 0.598766 2.489918
v -0.000000 -0.586804 2.746085
v -0.000000 0.598766 2.538698
v -0.535735 -0.586804 2.693320
v -0.495275 0.598766 2.489918
v -1.050881 -0.586804 2.537052
v -0.971518 0.598766 2.345451
v -1.525643 -0.586804 2.283287
v -1.410425 0.598766 2.110851
v -1.941776 -0.586804 1.941776
v -1.795131 0.598766 1.795131
v -2.283287 -0.586804 1.525643
v -2.110851 0.598766 1.410425
v -2.537052 -0.586804 1.050881
v -2.345451 0.598766 0.971518
v -2.693320 -0.586804 0.535735
v -2.489918 0.598766 0.495276
v -2.746085 -0.586804 0.000000
v -2.538698 0.598766 0.000000
v -2.693320 -0.586804 -0.535735
v -2.489918 0.598766 -0.495275
v -2.537052 -0.586804 -1.050881
v -2.345451 0.598766 -0.971518
v -2.283287 -0.586804 -1.525643
v -2.110851 0.598766 -1.410425
v -1.941776 -0.586804 -1.941776
v -1.795131 0.598766 -1.795131
v -1.525643 -0.586804 -2.283287
v -1.410425 0.598766 -2.110851
v -1.050881 -0.586804 -2.537052
v -0.971518 0.598766 -2.345451
v -0.535735 -0.586804 -2.693320
v -0.495275 0.598766 -2.489918
v -0.000000 0.000000 -2.899763
v 0.565716 0.000000 -2.844045
v 1.109691 0.000000 -2.679032
v 1.611022 0.000000 -2.411065
v 2.050442 0.000000 -2.050442
v 2.411065 0.000000 -1.611022
v 2.679032 0.000000 -1.109691
v 2.844045 0.000000 -0.565716
v 2.899763 0.000000 0.000000
v 2.844045 0.000000 0.565716
v 2.679032 0.000000 1.109691
v 2.411065 0.000000 1.611022
v 2.050442 0.000000 2.050442
v 1.611022 0.000000 2.411065
v 1.109691 0.000000 2.679032
v 0.565716 0.000000 2.844045
v -0.000000 0.000000 2.899763
v -0.565716 0.000000 2.844045
v -1.109691 0.000000 2.679032
v -1.611022 0.000000 2.411065
v -2.050442 0.000000 2.050442
v -2.411065 0.000000 1.611022
v -2.679032 0.000000 1.109691
v -2.844045 0.000000 0.565716
v -2.899763 0.000000 0.000000
v -2.844045 0.000000 -0.565716
v -2.679032 0.000000 -1.109691
v -2.411065 0.000000 -1.611022
v -2.050442 0.000000 -2.050442
v -1.611022 0.000000 -2.411065
v -1.109691 0.000000 -2.679032
v -0.565716 0.000000 -2.844045
v -0.000000 0.281440 -2.794546
v 0.545189 0.281440 -2.740850
v 1.069426 0.281440 -2.581824
v 1.552567 0.281440 -2.323580
v 1.976043 0.281440 -1.976043
v 2.323580 0.281440 -1.552567
v 2.581824 0.281440 -1.069427
v 2.740850 0.281440 -0.545189
v 2.794546 0.281440 0.000000
v 2.740850 0.281440 0.545189
v 2.581824 0.281440 1.069427
v 2.323580 0.281440 1.552567
v 1.976043 0.281440 1.976043
v 1.552567 0.281440 2.323580
v 1.069426 0.281440 2.581824
v 0.545189 0.281440 2.740850
v -0.000000 0.281440 2.794546
v -0.545189 0.281440 2.740850
v -1.069427 0.281440 2.581824
v -1.552567 0.281440 2.323580
v -1.976043 0.281440 1.976043
v -2.323580 0.281440 1.552567
v -2.581824 0.281440 1.069427
v -2.740850 0.281440 0.545189
v -2.794546 0.281440 0.000000
v -2.740850 0.281440 -0.545189
v -2.581824 0.281440 -1.069427
v -2.323580 0.281440 -1.552567
v -1.976043 0.281440 -1.976043
v -1.552567 0.281440 -2.323580
v -1.069427 0.281440 -2.581824
v -0.545189 0.281440 -2.740850
v 0.558004 -0.293402 -2.805274
v 1.094563 -0.293402 -2.642510
v 1.589060 -0.293402 -2.378196
v 2.022490 -0.293402 -2.022490
v 2.378196 -0.293402 -1.589060
v 2.642510 -0.293402 -1.094563
v 2.805274 -0.293402 -0.558004
v 2.860232 -0.293402 0.000000
v 2.805274 -0.293402 0.558004
v 2.642510 -0.293402 1.094563
v 2.378196 -0.293402 1.589060
v 2.022490 -0.293402 2.022490
v 1.589060 -0.293402 2.378196
v 1.094563 -0.293402 2.642510
v 0.558004 -0.293402 2.805274
v -0.000000 -0.293402 2.860232
v -0.558004 -0.293402 2.805274
v -1.094563 -0.293402 2.642510
v -1.589060 -0.293402 2.378196
v -2.022490 -0.293402 2.022490
v -2.378196 -0.293402 1.589060
v -2.642510 -0.293402 1.094563
v -2.805274 -0.293402 0.558004
v -2.860232 -0.293402 0.000000
v -2.805274 -0.293402 -0.558004
v -2.642510 -0.293402 -1.094563
v -2.378196 -0.293402 -1.589060
v -2.022490 -0.293402 -2.022490
v -1.589060 -0.293402 -2.378196
v -1.094563 -0.293402 -2.642510
v -0.558004 -0.293402 -2.805274
v -0.000000 -0.293402 -2.860232
vn -0.0000 -0.3626 -0.9320
vn -0.0000 0.6277 -0.7785
vn 0.1818 -0.3626 -0.9140
vn 0.1519 0.6277 -0.7635
vn 0.3566 -0.3626 -0.8610
vn 0.2979 0.6277 -0.7192
vn 0.5178 -0.3626 -0.7749
vn 0.4325 0.6277 -0.6473
vn 0.6590 -0.3626 -0.6590
vn 0.5505 0.6277 -0.5505
vn 0.7749 -0.3626 -0.5178
vn 0.6473 0.6277 -0.4325
vn 0.8610 -0.3626 -0.3566
vn 0.7192 0.6277 -0.2979
vn 0.9140 -0.3626 -0.1818
vn 0.7635 0.6277 -0.1519
vn 0.9320 -0.3626 -0.0000
vn 0.7785 0.6277 -0.0000
vn 0.9140 -0.3626 0.1818
vn 0.7635 0.6277 0.1519
vn 0.8610 -0.3626 0.3566
vn 0.7192 0.6277 0.2979
vn 0.7749 -0.3626 0.5178
vn 0.6473 0.6277 0.4325
vn 0.6590 -0.3626 0.6590
vn 0.5505 0.6277 0.5505
vn 0.5178 -0.3626 0.7749
vn 0.4325 0.6277 0.6473
vn 0.3566 -0.3626 0.8610
vn 0.2979 0.6277 0.7192
vn 0.1818 -0.3626 0.9140
vn 0.1519 0.6277 0.7635
vn -0.0000 -0.3626 0.9320
vn -0.0000 0.6277 0.7785
vn -0.1818 -0.3626 0.9140
vn -0.1519 0.6277 0.7635
vn -0.3566 -0.3626 0.8610
vn -0.2979 0.6277 0.7192
vn -0.5178 -0.3626 0.7749
vn -0.4325 0.6277 0.6473
vn -0.6590 -0.3626 0.6590
vn -0.5505 0.6277 0.5505
vn -0.7749 -0.3626 0.5178
vn -0.6473 0.6277 0.4325
vn -0.8610 -0.3626 0.3566
vn -0.7192 0.6277 0.2979
vn -0.9140 -0.3626 0.1818
vn -0.7635 0.6277 0.1519
vn -0.9320 -0.3626 -0.0000
vn -0.7785 0.6277 -0.0000
vn -0.9140 -0.3626 -0.1818
vn -0.7635 0.6277 -0.1519
vn -0.8610 -0.3626 -0.3566
vn -0.7192 0.6277 -0.2979
vn -0.7749 -0.3626 -0.5178
vn -0.6473 0.6277 -0.4325
vn -0.6590 -0.3626 -0.6590
vn -0.5505 0.6277 -0.5505
vn -0.5178 -0.3626 -0.7749
vn -0.4325 0.6277 -0.6473
vn -0.3566 -0.3626 -0.8610
vn -0.2979 0.6277 -0.7192
vn -0.1818 -0.3626 -0.9140
vn -0.1519 0.6277 -0.7635
vn -0.0000 0.1100 -0.9939
vn 0.1939 0.1100 -0.9748
vn 0.3804 0.1100 -0.9183
vn 0.5522 0.1100 -0.8264
vn 0.7028 0.1100 -0.7028
vn 0.8264 0.1100 -0.5522
vn 0.9183 0.1100 -0.3804
vn 0.9748 0.1100 -0.1939
vn 0.9939 0.1100 -0.0000
vn 0.9748 0.1100 0.1939
vn 0.9183 0.1100 0.3804
vn 0.8264 0.1100 0.5522
vn 0.7028 0.1100 0.7028
vn 0.5522 0.1100 0.8264
vn 0.3804 0.1100 0.9183
vn 0.1939 0.1100 0.9748
vn -0.0000 0.1100 0.9939
vn -0.1939 0.1100 0.9748
vn -0.3804 0.1100 0.9183
vn -0.5522 0.1100 0.8264
vn -0.7028 0.1100 0.7028
vn -0.8264 0.1100 0.5522
vn -0.9183 0.1100 0.3804
vn -0.9748 0.1100 0.1939
vn -0.9939 0.1100 -0.0000
vn -0.9748 0.1100 -0.1939
vn -0.9183 0.1100 -0.3804
vn -0.8264 0.1100 -0.5522
vn -0.7028 0.1100 -0.7028
vn -0.5522 0.1100 -0.8264
vn -0.3804 0.1100 -0.9183
vn -0.1939 0.1100 -0.9748
vn -0.0000 0.4910 -0.8711
vn 0.1700 0.4910 -0.8544
vn 0.3334 0.4910 -0.8048
vn 0.4840 0.4910 -0.7243
vn 0.6160 0.4910 -0.6160
vn 0.7243 0.4910 -0.4840
vn 0.8048 0.4910 -0.3334
vn 0.8544 0.4910 -0.1700
vn 0.8711 0.4910 -0.0000
vn 0.8544 0.4910 0.1700
vn 0.8048 0.4910 0.3334
vn 0.7243 0.4910 0.4840
vn 0.6160 0.4910 0.6160
vn 0.4840 0.4910 0.7243
vn 0.3334 0.4910 0.8048
vn 0.1700 0.4910 0.8544
vn -0.0000 0.4910 0.8711
vn -0.1700 0.4910 0.8544
vn -0.3334 0.4910 0.8048
vn -0.4840 0.4910 0.7243
vn -0.6160 0.4910 0.6160
vn -0.7243 0.4910 0.4840
vn -0.8048 0.4910 0.3334
vn -0.8544 0.4910 0.1700
vn -0.8711 0.4910 -0.0000
vn -0.8544 0.4910 -0.1700
vn -0.8048 0.4910 -0.3334
vn -0.7243 0.4910 -0.4840
vn -0.6160 0.4910 -0.6160
vn -0.4840 0.4910 -0.7243
vn -0.3334 0.4910 -0.8048
vn -0.1700 0.4910 -0.8544
vn 0.1890 -0.2480 -0.9501
vn 0.3707 -0.2480 -0.8950
vn 0.5382 -0.2480 -0.8055
vn 0.6850 -0.2480 -0.6850
vn 0.8055 -0.2480 -0.5382
vn 0.8950 -0.2480 -0.3707
vn 0.9501 -0.2480 -0.1890
vn 0.9688 -0.2480 -0.0000
vn 0.9501 -0.2480 0.1890
vn 0.8950 -0.2480 0.3707
vn 0.8055 -0.2480 0.5382
vn 0.6850 -0.2480 0.6850
vn 0.5382 -0.2480 0.8055
vn 0.3707 -0.2480 0.8950
vn 0.1890 -0.2480 0.9501
vn -0.0000 -0.2480 0.9688
vn -0.1890 -0.2480 0.9501
vn -0.3707 -0.2480 0.8950
vn -0.5382 -0.2480 0.8055
vn -0.6850 -0.2480 0.6850
vn -0.8055 -0.2480 0.5382
vn -0.8950 -0.2480 0.3707
vn -0.9501 -0.2480 0.1890
vn -0.9688 -0.2480 -0.0000
vn -0.9501 -0.2480 -0.1890
vn -0.8950 -0.2480 -0.3707
vn -0.8055 -0.2480 -0.5382
vn -0.6850 -0.2480 -0.6850
vn -0.5382 -0.2480 -0.8055
vn -0.3707 -0.2480 -0.8950
vn -0.1890 -0.2480 -0.9501
vn -0.0000 -0.2480 -0.9688
vt 1.000000 0.750000
vt 1.000000 1.000000
vt 0.968750 1.000000
vt 0.968750 0.750000
vt 0.937500 1.000000
vt 0.937500 0.750000
vt 0.906250 1.000000
vt 0.906250 0.750000
vt 0.875000 1.000000
vt 0.875000 0.750000
vt 0.843750 1.000000
vt 0.843750 0.750000
vt 0.812500 1.000000
vt 0.812500 0.750000
vt 0.781250 1.000000
vt 0.781250 0.750000
vt 0.750000 1.000000
vt 0.750000 0.750000
vt 0.718750 1.000000
vt 0.718750 0.750000
vt 0.687500 1.000000
vt 0.687500 0.750000
vt 0.656250 1.000000
vt 0.656250 0.750000
vt 0.625000 1.000000
vt 0.625000 0.750000
vt 0.593750 1.000000
vt 0.593750 0.750000
vt 0.562500 1.000000
vt 0.562500 0.750000
vt 0.531250 1.000000
vt 0.531250 0.750000
vt 0.500000 1.000000
vt 0.500000 0.750000
vt 0.468750 1.000000
vt 0.468750 0.750000
vt 0.437500 1.000000
vt 0.437500 0.750000
vt 0.406250 1.000000
vt 0.406250 0.750000
vt 0.375000 1.000000
vt 0.375000 0.750000
vt 0.343750 1.000000
vt 0.343750 0.750000
vt 0.312500 1.000000
vt 0.312500 0.750000
vt 0.281250 1.000000
vt 0.281250 0.750000
vt 0.250000 1.000000
vt 0.250000 0.750000
vt 0.218750 1.000000
vt 0.218750 0.750000
vt 0.187500 1.000000
vt 0.187500 0.750000
vt 0.156250 1.000000
vt 0.156250 0.750000
vt 0.125000 1.000000
vt 0.125000 0.750000
vt 0.093750 1.000000
vt 0.093750 0.750000
vt 0.062500 1.000000
vt 0.062500 0.750000
vt 0.062500 0.250000
vt 0.062500 0.500000
vt 0.031250 0.500000
vt 0.031250 0.250000
vt 0.031250 1.000000
vt 0.031250 0.750000
vt 0.000000 1.000000
vt 0.000000 0.750000
vt 0.000000 0.500000
vt 0.000000 0.250000
vt 0.093750 0.250000
vt 0.093750 0.500000
vt 0.125000 0.250000
vt 0.125000 0.500000
vt 0.156250 0.250000
vt 0.156250 0.500000
vt 0.187500 0.250000
vt 0.187500 0.500000
vt 0.218750 0.250000
vt 0.218750 0.500000
vt 0.250000 0.250000
vt 0.250000 0.500000
vt 0.281250 0.250000
vt 0.281250 0.500000
vt 0.312500 0.250000
vt 0.312500 0.500000
vt 0.343750 0.250000
vt 0.343750 0.500000
vt 0.375000 0.250000
vt 0.375000 0.500000
vt 0.406250 0.250000
vt 0.406250 0.500000
vt 0.437500 0.250000
vt 0.437500 0.500000
vt 0.468750 0.250000
vt 0.468750 0.500000
vt 0.500000 0.250000
vt 0.500000 0.500000
vt 0.531250 0.250000
vt 0.531250 0.500000
vt 0.562500 0.250000
vt 0.562500 0.500000
vt 0.593750 0.250000
vt 0.593750 0.500000
vt 0.625000 0.250000
vt 0.625000 0.500000
vt 0.656250 0.250000
vt 0.656250 0.500000
vt 0.687500 0.250000
vt 0.687500 0.500000
vt 0.718750 0.250000
vt 0.718750 0.500000
vt 0.750000 0.250000
vt 0.750000 0.500000
vt 0.781250 0.250000
vt 0.781250 0.500000
vt 0.812500 0.250000
vt 0.812500 0.500000
vt 0.843750 0.250000
vt 0.843750 0.500000
vt 0.875000 0.250000
vt 0.875000 0.500000
vt 0.906250 0.250000
vt 0.906250 0.500000
vt 0.937500 0.250000
vt 0.937500 0.500000
vt 0.968750 0.250000
vt 0.968750 0.500000
vt 1.000000 0.250000
vt 1.000000 0.500000
vt 1.000000 0.000000
vt 0.968750 0.000000
vt 0.937500 0.000000
vt 0.906250 0.000000
vt 0.875000 0.000000
vt 0.843750 0.000000
vt 0.812500 0.000000
vt 0.781250 0.000000
vt 0.750000 0.000000
vt 0.718750 0.000000
vt 0.687500 0.000000
vt 0.656250 0.000000
vt 0.625000 0.000000
vt 0.593750 0.000000
vt 0.562500 0.000000
vt 0.531250 0.000000
vt 0.500000 0.000000
vt 0.468750 0.000000
vt 0.437500 0.000000
vt 0.406250 0.000000
vt 0.375000 0.000000
vt 0.343750 0.000000
vt 0.312500 0.000000
vt 0.281250 0.000000
vt 0.250000 0.000000
vt 0.218750 0.000000
vt 0.187500 0.000000
vt 0.156250 0.000000
vt 0.125000 0.000000
vt 0.093750 0.000000
vt 0.062500 0.000000
vt 0.031250 0.000000
vt 0.000000 0.000000
s 1
f 449/364/449 354/365/354 356/366/356 450/367/450
f 450/367/450 356/366/356 358/368/358 451/369/451
f 451/369/451 358/368/358 360/370/360 452/371/452
f 452/371/452 360/370/360 362/372/362 453/373/453
f 453/373/453 362/372/362 364/374/364 454/375/454
f 454/375/454 364/374/364 366/376/366 455/377/455
f 455/377/455 366/376/366 368/378/368 456/379/456
f 456/379/456 368/378/368 370/380/370 457/381/457
f 457/381/457 370/380/370 372/382/372 458/383/458
f 458/383/458 372/382/372 374/384/374 459/385/459
f 459/385/459 374/384/374 376/386/376 460/387/460
f 460/387/460 376/386/376 378/388/378 461/389/461
f 461/389/461 378/388/378 380/390/380 462/391/462
f 462/391/462 380/390/380 382/392/382 463/393/463
f 463/393/463 382/392/382 384/394/384 464/395/464
f 464/395/464 384/394/384 386/396/386 465/397/465
f 465/397/465 386/396/386 388/398/388 466/399/466
f 466/399/466 388/398/388 390/400/390 467/401/467
f 467/401/467 390/400/390 392/402/392 468/403/468
f 468/403/468 392/402/392 394/404/394 469/405/469
f 469/405/469 394/404/394 396/406/396 470/407/470
f 470/407/470 396/406/396 398/408/398 471/409/471
f 471/409/471 398/408/398 400/410/400 472/411/472
f 472/411/472 400/410/400 402/412/402 473/413/473
f 473/413/473 402/412/402 404/414/404 474/415/474
f 474/415/474 404/414/404 406/416/406 475/417/475
f 475/417/475 406/416/406 408/418/408 476/419/476
f 476/419/476 408/418/408 410/420/410 477/421/477
f 477/421/477 410/420/410 412/422/412 478/423/478
f 478/423/478 412/422/412 414/424/414 479/425/479
f 510/426/510 447/427/447 448/428/448 511/429/511
f 479/425/479 414/424/414 416/430/416 480/431/480
f 480/431/480 416/430/416 354/432/354 449/433/449
f 511/429/511 448/428/448 417/434/417 512/435/512
f 509/436/509 446/437/446 447/427/447 510/426/510
f 508/438/508 445/439/445 446/437/446 509/436/509
f 507/440/507 444/441/444 445/439/445 508/438/508
f 506/442/506 443/443/443 444/441/444 507/440/507
f 505/444/505 442/445/442 443/443/443 506/442/506
f 504/446/504 441/447/441 442/445/442 505/444/505
f 503/448/503 440/449/440 441/447/441 504/446/504
f 502/450/502 439/451/439 440/449/440 503/448/503
f 501/452/501 438/453/438 439/451/439 502/450/502
f 500/454/500 437/455/437 438/453/438 501/452/501
f 499/456/499 436/457/436 437/455/437 500/454/500
f 498/458/498 435/459/435 436/457/436 499/456/499
f 497/460/497 434/461/434 435/459/435 498/458/498
f 496/462/496 433/463/433 434/461/434 497/460/497
f 495/464/495 432/465/432 433/463/433 496/462/496
f 494/466/494 431/467/431 432/465/432 495/464/495
f 493/468/493 430/469/430 431/467/431 494/466/494
f 492/470/492 429/471/429 430/469/430 493/468/493
f 491/472/491 428/473/428 429/471/429 492/470/492
f 490/474/490 427/475/427 428/473/428 491/472/491
f 489/476/489 426/477/426 427/475/427 490/474/490
f 488/478/488 425/479/425 426/477/426 489/476/489
f 487/480/487 424/481/424 425/479/425 488/478/488
f 486/482/486 423/483/423 424/481/424 487/480/487
f 485/484/485 422/485/422 423/483/423 486/482/486
f 484/486/484 421/487/421 422/485/422 485/484/485
f 483/488/483 420/489/420 421/487/421 484/486/484
f 482/490/482 419/491/419 420/489/420 483/488/483
f 481/492/481 418/493/418 419/491/419 482/490/482
f 512/494/512 417/495/417 418/493/418 481/492/481
f 448/428/448 480/431/480 449/433/449 417/434/417
f 447/427/447 479/425/479 480/431/480 448/428/448
f 446/437/446 478/423/478 479/425/479 447/427/447
f 445/439/445 477/421/477 478/423/478 446/437/446
f 444/441/444 476/419/476 477/421/477 445/439/445
f 443/443/443 475/417/475 476/419/476 444/441/444
f 442/445/442 474/415/474 475/417/475 443/443/443
f 441/447/441 473/413/473 474/415/474 442/445/442
f 440/449/440 472/411/472 473/413/473 441/447/441
f 439/451/439 471/409/471 472/411/472 440/449/440
f 438/453/438 470/407/470 471/409/471 439/451/439
f 437/455/437 469/405/469 470/407/470 438/453/438
f 436/457/436 468/403/468 469/405/469 437/455/437
f 435/459/435 467/401/467 468/403/468 436/457/436
f 434/461/434 466/399/466 467/401/467 435/459/435
f 433/463/433 465/397/465 466/399/466 434/461/434
f 432/465/432 464/395/464 465/397/465 433/463/433
f 431/467/431 463/393/463 464/395/464 432/465/432
f 430/469/430 462/391/462 463/393/463 431/467/431
f 429/471/429 461/389/461 462/391/462 430/469/430
f 428/473/428 460/387/460 461/389/461 429/471/429
f 427/475/427 459/385/459 460/387/460 428/473/428
f 426/477/426 458/383/458 459/385/459 427/475/427
f 425/479/425 457/381/457 458/383/458 426/477/426
f 424/481/424 456/379/456 457/381/457 425/479/425
f 423/483/423 455/377/455 456/379/456 424/481/424
f 422/485/422 454/375/454 455/377/455 423/483/423
f 421/487/421 453/373/453 454/375/454 422/485/422
f 420/489/420 452/371/452 453/373/453 421/487/421
f 419/491/419 451/369/451 452/371/452 420/489/420
f 418/493/418 450/367/450 451/369/451 419/491/419
f 417/495/417 449/364/449 450/367/450 418/493/418
f 353/496/353 512/494/512 481/492/481 355/497/355
f 355/497/355 481/492/481 482/490/482 357/498/357
f 357/498/357 482/490/482 483/488/483 359/499/359
f 359/499/359 483/488/483 484/486/484 361/500/361
f 361/500/361 484/486/484 485/484/485 363/501/363
f 363/501/363 485/484/485 486/482/486 365/502/365
f 365/502/365 486/482/486 487/480/487 367/503/367
f 367/503/367 487/480/487 488/478/488 369/504/369
f 369/504/369 488/478/488 489/476/489 371/505/371
f 371/505/371 489/476/489 490/474/490 373/506/373
f 373/506/373 490/474/490 491/472/491 375/507/375
f 375/507/375 491/472/491 492/470/492 377/508/377
f 377/508/377 492/470/492 493/468/493 379/509/379
f 379/509/379 493/468/493 494/466/494 381/510/381
f 381/510/381 494/466/494 495/464/495 383/511/383
f 383/511/383 495/464/495 496/462/496 385/512/385
f 385/512/385 496/462/496 497/460/497 387/513/387
f 387/513/387 497/460/497 498/458/498 389/514/389
f 389/514/389 498/458/498 499/456/499 391/515/391
f 391/515/391 499/456/499 500/454/500 393/516/393
f 393/516/393 500/454/500 501/452/501 395/517/395
f 395/517/395 501/452/501 502/450/502 397/518/397
f 397/518/397 502/450/502 503/448/503 399/519/399
f 399/519/399 503/448/503 504/446/504 401/520/401
f 401/520/401 504/446/504 505/444/505 403/521/403
f 403/521/403 505/444/505 506/442/506 405/522/405
f 405/522/405 506/442/506 507/440/507 407/523/407
f 407/523/407 507/440/507 508/438/508 409/524/409
f 409/524/409 508/438/508 509/436/509 411/525/411
f 411/525/411 509/436/509 510/426/510 413/526/413
f 415/527/415 511/429/511 512/435/512 353/528/353
f 413/526/413 510/426/510 511/429/511 415/527/415
